<svg width="514" height="525" viewBox="0 0 514 525" fill="none" xmlns="http://www.w3.org/2000/svg">
<g clip-path="url(#clip0_13_437)">
<path d="M45.6239 483.781C39.5155 494.787 61.1436 510.65 72.0471 517.716H221.454C220.698 510.929 217.315 495.424 202.412 491.026C183.152 485.333 182.913 499.942 182.913 499.942C182.913 499.942 166.757 459.559 147.377 461.171C127.998 462.783 139.299 487.025 139.299 487.025C139.299 487.025 68.2269 409.463 48.8472 425.625C29.4675 441.786 84.3833 498.33 84.3833 498.33C84.3833 498.33 53.7021 469.252 45.6239 483.781Z" fill="#C0E8FF"/>
<path d="M140.612 523.368L107.703 487.483L105.395 464.276L102.967 464.515L104.977 484.517L59.8503 435.317L58.0595 436.949L81.6176 462.624L61.5813 459.161L61.1635 461.549L84.2838 465.55L105.375 488.538L105.395 488.757L105.574 488.737L138.822 525L140.612 523.368Z" fill="white"/>
<path d="M381.744 497.056C385.505 503.823 372.194 513.556 365.508 517.915H273.684C274.161 513.735 276.23 504.221 285.383 501.515C297.222 498.012 297.361 506.988 297.361 506.988C297.361 506.988 307.29 482.169 319.188 483.164C331.106 484.159 324.143 499.047 324.143 499.047C324.143 499.047 367.816 451.399 379.715 461.311C391.633 471.242 357.888 505.993 357.888 505.993C357.888 505.993 376.75 488.12 381.705 497.056H381.744Z" fill="#C0E8FF"/>
<path d="M438.67 497.056C442.43 503.823 429.119 513.556 422.434 517.915H330.609C331.087 513.735 333.156 504.221 342.309 501.515C354.147 498.012 354.287 506.988 354.287 506.988C354.287 506.988 364.215 482.169 376.114 483.164C388.012 484.159 381.068 499.047 381.068 499.047C381.068 499.047 424.742 451.399 436.64 461.311C448.559 471.242 414.813 505.993 414.813 505.993C414.813 505.993 433.676 488.12 438.63 497.056H438.67Z" fill="#A7D1FF"/>
<path d="M323.386 521.378L343.602 499.325L345.015 485.075L346.507 485.214L345.273 497.494L373.01 467.262L374.104 468.277L359.639 484.04L371.935 481.93L372.194 483.403L357.987 485.851L345.034 499.982L345.015 500.101H344.915L324.481 522.373L323.386 521.378Z" fill="white"/>
<path d="M38.5604 41.02V177.594C38.5604 184.242 43.9525 189.635 50.5981 189.635H285.96C292.606 189.635 297.998 184.242 297.998 177.594V41.02H38.5604Z" fill="#DEEDFF"/>
<path d="M285.96 13.8326H50.5981C43.9525 13.8326 38.5604 19.2263 38.5604 25.8738V50.2151H297.998V25.8738C297.998 19.2263 292.606 13.8326 285.96 13.8326Z" fill="#023A90"/>
<path d="M65.9786 32.0238C62.7751 32.0238 60.1885 29.4365 60.1885 26.2321V5.79176C60.1885 2.58738 62.7751 0 65.9786 0C69.182 0 71.7686 2.58738 71.7686 5.79176V26.2122C71.7686 29.4166 69.182 32.0039 65.9786 32.0039V32.0238Z" fill="url(#paint0_linear_13_437)"/>
<path d="M134.186 32.0238C130.982 32.0238 128.396 29.4365 128.396 26.2321V5.79176C128.396 2.58738 130.982 0 134.186 0C137.389 0 139.976 2.58738 139.976 5.79176V26.2122C139.976 29.4166 137.389 32.0039 134.186 32.0039V32.0238Z" fill="url(#paint1_linear_13_437)"/>
<path d="M202.393 32.0238C199.189 32.0238 196.603 29.4365 196.603 26.2321V5.79176C196.603 2.58738 199.189 0 202.393 0C205.596 0 208.183 2.58738 208.183 5.79176V26.2122C208.183 29.4166 205.596 32.0039 202.393 32.0039V32.0238Z" fill="url(#paint2_linear_13_437)"/>
<path d="M270.58 32.0238C267.376 32.0238 264.79 29.4365 264.79 26.2321V5.79176C264.79 2.58738 267.376 0 270.58 0C273.783 0 276.37 2.58738 276.37 5.79176V26.2122C276.37 29.4166 273.783 32.0039 270.58 32.0039V32.0238Z" fill="url(#paint3_linear_13_437)"/>
<path d="M101.495 66.0977H73.9175C72.8076 66.0977 71.9079 66.9977 71.9079 68.1079V95.6934C71.9079 96.8036 72.8076 97.7036 73.9175 97.7036H101.495C102.605 97.7036 103.504 96.8036 103.504 95.6934V68.1079C103.504 66.9977 102.605 66.0977 101.495 66.0977Z" fill="#7AAFFF"/>
<path d="M141.786 66.0977H114.209C113.099 66.0977 112.199 66.9977 112.199 68.1079V95.6934C112.199 96.8036 113.099 97.7036 114.209 97.7036H141.786C142.896 97.7036 143.796 96.8036 143.796 95.6934V68.1079C143.796 66.9977 142.896 66.0977 141.786 66.0977Z" fill="#7AAFFF"/>
<path d="M182.078 66.0977H154.5C153.391 66.0977 152.491 66.9977 152.491 68.1079V95.6934C152.491 96.8036 153.391 97.7036 154.5 97.7036H182.078C183.188 97.7036 184.087 96.8036 184.087 95.6934V68.1079C184.087 66.9977 183.188 66.0977 182.078 66.0977Z" fill="#7AAFFF"/>
<path d="M222.369 66.0977H194.792C193.682 66.0977 192.782 66.9977 192.782 68.1079V95.6934C192.782 96.8036 193.682 97.7036 194.792 97.7036H222.369C223.479 97.7036 224.379 96.8036 224.379 95.6934V68.1079C224.379 66.9977 223.479 66.0977 222.369 66.0977Z" fill="#7AAFFF"/>
<path d="M262.661 66.0977H235.083C233.974 66.0977 233.074 66.9977 233.074 68.1079V95.6934C233.074 96.8036 233.974 97.7036 235.083 97.7036H262.661C263.771 97.7036 264.67 96.8036 264.67 95.6934V68.1079C264.67 66.9977 263.771 66.0977 262.661 66.0977Z" fill="#7AAFFF"/>
<path d="M101.495 104.391H73.9175C72.8076 104.391 71.9079 105.291 71.9079 106.401V133.987C71.9079 135.097 72.8076 135.997 73.9175 135.997H101.495C102.605 135.997 103.504 135.097 103.504 133.987V106.401C103.504 105.291 102.605 104.391 101.495 104.391Z" fill="#7AAFFF"/>
<path d="M141.786 104.391H114.209C113.099 104.391 112.199 105.291 112.199 106.401V133.987C112.199 135.097 113.099 135.997 114.209 135.997H141.786C142.896 135.997 143.796 135.097 143.796 133.987V106.401C143.796 105.291 142.896 104.391 141.786 104.391Z" fill="#023A90"/>
<path d="M182.078 104.391H154.5C153.391 104.391 152.491 105.291 152.491 106.401V133.987C152.491 135.097 153.391 135.997 154.5 135.997H182.078C183.188 135.997 184.087 135.097 184.087 133.987V106.401C184.087 105.291 183.188 104.391 182.078 104.391Z" fill="#7AAFFF"/>
<path d="M222.369 104.391H194.792C193.682 104.391 192.782 105.291 192.782 106.401V133.987C192.782 135.097 193.682 135.997 194.792 135.997H222.369C223.479 135.997 224.379 135.097 224.379 133.987V106.401C224.379 105.291 223.479 104.391 222.369 104.391Z" fill="#7AAFFF"/>
<path d="M262.661 104.391H235.083C233.974 104.391 233.074 105.291 233.074 106.401V133.987C233.074 135.097 233.974 135.997 235.083 135.997H262.661C263.771 135.997 264.67 135.097 264.67 133.987V106.401C264.67 105.291 263.771 104.391 262.661 104.391Z" fill="#7AAFFF"/>
<path d="M101.495 142.664H73.9175C72.8076 142.664 71.9079 143.564 71.9079 144.675V172.26C71.9079 173.37 72.8076 174.27 73.9175 174.27H101.495C102.605 174.27 103.504 173.37 103.504 172.26V144.675C103.504 143.564 102.605 142.664 101.495 142.664Z" fill="#7AAFFF"/>
<path d="M141.786 142.664H114.209C113.099 142.664 112.199 143.564 112.199 144.675V172.26C112.199 173.37 113.099 174.27 114.209 174.27H141.786C142.896 174.27 143.796 173.37 143.796 172.26V144.675C143.796 143.564 142.896 142.664 141.786 142.664Z" fill="#7AAFFF"/>
<path d="M182.078 142.664H154.5C153.391 142.664 152.491 143.564 152.491 144.675V172.26C152.491 173.37 153.391 174.27 154.5 174.27H182.078C183.188 174.27 184.087 173.37 184.087 172.26V144.675C184.087 143.564 183.188 142.664 182.078 142.664Z" fill="#7AAFFF"/>
<path d="M222.369 142.664H194.792C193.682 142.664 192.782 143.564 192.782 144.675V172.26C192.782 173.37 193.682 174.27 194.792 174.27H222.369C223.479 174.27 224.379 173.37 224.379 172.26V144.675C224.379 143.564 223.479 142.664 222.369 142.664Z" fill="#7AAFFF"/>
<path d="M262.661 142.664H235.083C233.974 142.664 233.074 143.564 233.074 144.675V172.26C233.074 173.37 233.974 174.27 235.083 174.27H262.661C263.771 174.27 264.67 173.37 264.67 172.26V144.675C264.67 143.564 263.771 142.664 262.661 142.664Z" fill="#7AAFFF"/>
<path d="M95.5058 344.241C133.307 344.241 163.952 313.588 163.952 275.775C163.952 237.962 133.307 207.309 95.5058 207.309C57.7042 207.309 27.06 237.962 27.06 275.775C27.06 313.588 57.7042 344.241 95.5058 344.241Z" fill="#C0E8FF"/>
<path d="M55.5724 350.411C28.99 336.141 10.9036 308.078 10.9036 275.795" stroke="#64AAFF" stroke-width="2" stroke-linecap="round" stroke-linejoin="round"/>
<path d="M95.5058 332.399C126.769 332.399 152.113 307.048 152.113 275.775C152.113 244.503 126.769 219.151 95.5058 219.151C64.2425 219.151 38.8987 244.503 38.8987 275.775C38.8987 307.048 64.2425 332.399 95.5058 332.399Z" fill="url(#paint4_linear_13_437)"/>
<path d="M94.6502 284.115C94.3318 284.115 94.0135 284.055 93.715 283.935C92.7998 283.557 92.2227 282.682 92.2227 281.706V236.905C92.2227 235.571 93.2972 234.477 94.6502 234.477C96.0032 234.477 97.0776 235.551 97.0776 236.905V275.855L113.652 259.276C114.607 258.32 116.139 258.32 117.074 259.276C118.029 260.231 118.029 261.764 117.074 262.699L96.3812 283.398C95.9236 283.856 95.3068 284.115 94.6701 284.115H94.6502Z" fill="#C0E8FF"/>
<path d="M438.471 222.057H311.13C304.942 222.057 300.445 216.146 302.117 210.175L322.531 136.873C324.739 128.971 331.942 123.498 340.14 123.498H467.361C473.549 123.498 478.046 129.409 476.375 135.38L455.921 208.782C453.732 216.624 446.589 222.057 438.431 222.057H438.471Z" fill="#C0E8FF"/>
<path d="M445.733 227.71H318.392C312.204 227.71 307.708 221.798 309.379 215.828L329.793 142.525C332.002 134.624 339.205 129.15 347.402 129.15H474.624C480.812 129.15 485.309 135.061 483.637 141.032L463.183 214.434C460.994 222.276 453.851 227.71 445.694 227.71H445.733Z" stroke="#64AAFF" stroke-miterlimit="10"/>
<path d="M423.329 210.155H400.726C399.115 210.155 397.941 208.623 398.378 207.05L418.395 135.181C418.634 134.325 419.41 133.728 420.305 133.728H448.897L428.761 206.015C428.085 208.444 425.856 210.135 423.329 210.135V210.155Z" stroke="#64AAFF" stroke-miterlimit="10"/>
<path d="M358.266 157.512H335.046C333.912 157.512 333.096 156.437 333.395 155.342L337.115 141.988C337.513 140.555 338.827 139.54 340.319 139.54H363.519C364.653 139.54 365.469 140.614 365.17 141.709L361.449 155.084C361.052 156.517 359.738 157.512 358.266 157.512Z" fill="#023A90"/>
<path d="M393.086 157.512H369.866C368.732 157.512 367.916 156.437 368.214 155.342L371.935 141.988C372.333 140.555 373.646 139.54 375.139 139.54H398.339C399.473 139.54 400.288 140.614 399.99 141.709L396.269 155.084C395.871 156.517 394.558 157.512 393.086 157.512Z" fill="#C0E8FF"/>
<path d="M387.037 180.54H363.817C362.683 180.54 361.867 179.465 362.166 178.37L365.887 165.015C366.284 163.582 367.598 162.567 369.09 162.567H392.29C393.424 162.567 394.24 163.642 393.941 164.737L390.221 178.111C389.823 179.545 388.509 180.54 387.037 180.54Z" fill="#C0E8FF"/>
<path d="M220.181 130.961C220.181 130.961 224.419 137.927 223.822 140.953C223.225 143.978 218.37 143.082 218.37 143.082L220.181 130.961Z" fill="#EC7C68"/>
<path d="M217.554 110.441C217.554 110.441 221.295 115.875 221.295 120.97C221.295 126.065 223.324 151.203 219.942 154.268C216.539 157.333 202.95 153.929 202.95 153.929C202.95 153.929 196.503 152.238 193.777 142.724C191.051 133.21 199.209 116.572 199.209 116.572L217.554 110.461V110.441Z" fill="#FBA181"/>
<path d="M209.436 152.616C209.436 152.616 207.904 160.895 212.5 168.26C212.5 168.26 197.458 167.026 188.883 167.961C188.883 167.961 190.733 153.531 190.415 149.232C190.116 144.933 203.905 147.998 209.436 152.616Z" fill="#FBA181"/>
<path d="M184.585 106.899C184.585 106.899 192.404 100.689 200.681 101.605C208.959 102.52 216.321 105.744 219.086 104.829C221.852 103.913 218.629 112.193 214.948 113.347C211.267 114.502 212.878 123.02 211.963 126.244C211.048 129.469 210.59 128.772 210.113 130.842C209.635 132.912 211.028 135.897 211.028 137.291C211.028 138.684 208.72 138.664 208.72 138.664C208.72 138.664 207.108 133.37 205.954 133.131C204.8 132.892 202.731 132.434 201.119 136.813C199.508 141.192 202.731 146.486 202.97 149.013C203.208 151.541 200.9 153.85 197.677 154.546C194.454 155.243 188.942 155.243 186.177 153.631C183.411 152.019 183.868 148.794 181.58 145.57C179.272 142.346 174.915 139.36 173.761 129.23C172.607 119.099 179.053 116.81 179.053 116.81C179.053 116.81 179.292 108.989 184.585 106.919V106.899Z" fill="#023C5D"/>
<path d="M207.645 135.599C207.645 135.599 207.248 129.29 204.303 130.882C201.358 132.454 202.134 142.306 205.477 143.082C208.819 143.878 208.043 136.972 207.645 135.599Z" fill="#EC7C68"/>
<path d="M333.136 171.563C333.136 171.563 331.126 164.697 332.121 162.886C333.136 161.075 338.17 160.657 338.17 160.657C338.17 160.657 336.956 168.538 333.116 171.563H333.136Z" fill="#EC7C68"/>
<path d="M322.77 179.405L332.559 170.588C332.559 170.588 337.115 152.317 346.586 143.5C348.636 144.137 349.531 146.565 348.357 148.357C346.328 151.461 343.721 155.9 343.323 158.826C343.323 158.826 352.774 160.776 356.376 164.697C358.007 167.304 356.376 175.146 355.719 176.44C355.063 177.753 351.799 177.753 351.799 177.753C351.799 177.753 349.511 182.968 347.561 184.6C345.611 186.232 338.11 185.575 338.11 185.575L334.191 191.128C334.191 191.128 324.739 187.864 322.77 179.385V179.405Z" fill="#FBA181"/>
<path d="M167.593 170.409C167.593 170.409 158.699 171.822 158.002 190.073C157.306 208.324 151.675 235.711 151.675 251.155C151.675 266.6 170.637 316.457 175.552 319.98C175.552 319.98 181.162 317.87 186.773 314.367C186.773 314.367 181.859 281.368 179.75 266.62C177.641 251.872 181.859 206.234 184.664 197.815C187.47 189.396 189.818 166.926 167.593 170.429V170.409Z" fill="#023A90"/>
<path d="M246.146 518.114C247.221 517.576 247.818 516.8 247.36 515.646C246.186 512.6 239.162 511.665 234.487 510.272C229.811 508.879 226.766 505.595 226.766 505.595L225.135 503.246C223.503 500.898 221.394 501.375 221.394 501.375C221.394 501.375 208.521 502.788 206.77 502.888C205.019 503.007 204.78 506.749 203.845 510.491C203.149 513.297 202.83 516.482 204.303 518.114H246.146Z" fill="#023A90"/>
<path d="M204.442 487.781C204.442 487.781 206.551 496.2 205.855 502.888C205.497 507.446 212.182 506.749 217.077 506.391C221.991 506.032 223.404 504.978 223.404 503.584C223.404 502.191 218.489 498.668 218.131 491.304C217.773 483.94 210.411 484.279 204.442 487.801V487.781Z" fill="#FBA181"/>
<path d="M248.315 485.911C248.315 485.911 245.967 493.394 246.902 497.136C247.837 500.878 253.448 503.226 249.708 504.619C245.967 506.032 235.203 503.684 230.985 500.4C227.702 497.116 232.855 495.245 233.79 492.916C234.725 490.568 235.66 480.278 235.66 480.278L248.295 485.891L248.315 485.911Z" fill="#FBA181"/>
<path d="M219.265 293.011C219.265 293.011 221.514 301.968 221.156 310.844C220.976 315.521 222.389 483.084 223.026 490.608C223.782 495.325 205.715 496.738 201.159 493.752C201.159 493.752 197.04 455.18 193.2 433.486C189.36 411.792 185.5 366.672 181.401 351.506C177.302 336.36 169.801 312.636 169.582 293.887C169.582 293.887 188.445 266.52 219.265 293.011Z" fill="#024470"/>
<path d="M242.704 291.18L249.25 303.361C249.25 303.361 278.26 372.643 282.936 394.178C287.612 415.713 251.12 489.672 251.12 489.672C251.12 489.672 231.204 488.876 233.332 480.318C234.268 476.576 251.12 399.791 251.12 399.791C251.12 399.791 223.046 351.108 218.37 342.669C213.694 334.25 194.036 326.747 186.555 299.599L242.704 291.18Z" fill="#023C5D"/>
<path d="M185.619 159.562C192.683 158.726 206.352 157.731 213.913 161.274L219.524 166.19L179.69 167.921L180.287 164.597C180.765 161.93 182.913 159.88 185.6 159.582L185.619 159.562Z" fill="#023A90"/>
<path d="M247.101 289.051C243.977 292.693 243.958 298.067 239.222 298.863C225.473 301.171 198.095 303.381 174.895 300.913C169.682 300.355 165.882 295.758 166.379 290.523C167.752 276.114 170.219 249.026 169.702 243.413C169.005 235.691 162.678 198.472 161.285 187.247C159.873 176.022 167.613 170.389 167.613 170.389L178.835 166.17L209.655 164.757C209.655 164.757 227.98 164.757 235.7 171.086C243.42 177.415 246.226 190.75 246.226 201.279C246.226 201.279 249.171 220.624 249.171 236.984C249.171 253.345 252.354 282.94 247.121 289.051H247.101Z" fill="#023A90"/>
<path d="M226.428 509.675C227.702 512.66 235.959 516.422 242.028 518.114H272.51C273.505 516.919 273.922 515.546 272.291 515.287C269.485 515.287 259.656 511.068 256.851 509.197C254.045 507.326 254.045 502.649 250.305 501.236C235.8 504.042 230.646 496.559 230.646 496.559C228.299 500.3 228.776 502.171 228.776 502.171C228.776 502.171 225.035 506.391 226.428 509.655V509.675Z" fill="#023A90"/>
<path d="M242.027 518.114H248.932C247.937 517.457 247.002 516.72 246.186 515.865C240.217 509.197 232.139 507.087 227.582 507.784C226.946 507.884 226.488 508.063 226.11 508.282C226.13 508.759 226.209 509.217 226.408 509.655C227.682 512.64 235.939 516.402 242.008 518.094L242.027 518.114Z" fill="#6F439C"/>
<path d="M224.677 201.298C224.677 201.298 274.519 227.272 287.85 230.795C296.267 232.904 339.085 187.267 339.085 187.267C339.085 187.267 338.588 172.2 325.237 174.29L288.527 201.995C288.527 201.995 259.736 185.854 252.016 181.634C244.296 177.415 231.661 165.493 226.747 167.583C221.832 169.693 205.696 186.55 224.637 201.279L224.677 201.298Z" fill="#023A90"/>
<path d="M168.787 204.284C168.787 204.284 171.612 244.667 172.01 251.951C172.408 259.216 169.582 293.887 169.582 293.887" stroke="#64AAFF" stroke-miterlimit="10"/>
<path d="M113.473 373.399H52.2297C50.3395 373.399 48.8074 371.867 48.8074 369.976C48.8074 368.085 50.3395 366.553 52.2297 366.553H113.473C115.363 366.553 116.895 368.085 116.895 369.976C116.895 371.867 115.363 373.399 113.473 373.399Z" fill="#C0E8FF"/>
<path d="M74.9322 387.451H52.2297C50.3395 387.451 48.8074 385.918 48.8074 384.027C48.8074 382.137 50.3395 380.604 52.2297 380.604H74.9322C76.8224 380.604 78.3545 382.137 78.3545 384.027C78.3545 385.918 76.8224 387.451 74.9322 387.451Z" fill="#C0E8FF"/>
<path d="M462.347 260.112H401.104C399.214 260.112 397.682 258.579 397.682 256.688C397.682 254.798 399.214 253.265 401.104 253.265H462.347C464.238 253.265 465.77 254.798 465.77 256.688C465.77 258.579 464.238 260.112 462.347 260.112Z" fill="#C0E8FF"/>
<path d="M423.807 274.163H401.104C399.214 274.163 397.682 272.631 397.682 270.74C397.682 268.849 399.214 267.316 401.104 267.316H423.807C425.697 267.316 427.229 268.849 427.229 270.74C427.229 272.631 425.697 274.163 423.807 274.163Z" fill="#C0E8FF"/>
<path d="M474.584 334.847H316.462C312.517 334.847 309.319 338.046 309.319 341.992V371.707C309.319 375.654 312.517 378.853 316.462 378.853H474.584C478.529 378.853 481.727 375.654 481.727 371.707V341.992C481.727 338.046 478.529 334.847 474.584 334.847Z" fill="#C0E8FF"/>
<path d="M456.219 352.999H338.09C336.2 352.999 334.668 351.466 334.668 349.575C334.668 347.685 336.2 346.152 338.09 346.152H456.219C458.109 346.152 459.641 347.685 459.641 349.575C459.641 351.466 458.109 352.999 456.219 352.999Z" fill="#C0E8FF"/>
<path d="M360.813 367.07H338.11C336.22 367.07 334.688 365.538 334.688 363.647C334.688 361.756 336.22 360.224 338.11 360.224H360.813C362.703 360.224 364.235 361.756 364.235 363.647C364.235 365.538 362.703 367.07 360.813 367.07Z" fill="#C0E8FF"/>
<path d="M422.891 395.432H264.77C260.825 395.432 257.627 398.631 257.627 402.577V432.292C257.627 436.238 260.825 439.437 264.77 439.437H422.891C426.836 439.437 430.035 436.238 430.035 432.292V402.577C430.035 398.631 426.836 395.432 422.891 395.432Z" fill="#C0E8FF"/>
<path d="M347.661 413.603H286.418C284.528 413.603 282.995 412.071 282.995 410.18C282.995 408.289 284.528 406.757 286.418 406.757H347.661C349.551 406.757 351.083 408.289 351.083 410.18C351.083 412.071 349.551 413.603 347.661 413.603Z" fill="#7AAFFF"/>
<path d="M309.12 427.655H286.418C284.528 427.655 282.995 426.122 282.995 424.231C282.995 422.341 284.528 420.808 286.418 420.808H309.12C311.011 420.808 312.543 422.341 312.543 424.231C312.543 426.122 311.011 427.655 309.12 427.655Z" fill="#7AAFFF"/>
<path d="M348.875 317.372C368.94 317.372 385.207 301.101 385.207 281.03C385.207 260.958 368.94 244.687 348.875 244.687C328.809 244.687 312.543 260.958 312.543 281.03C312.543 301.101 328.809 317.372 348.875 317.372Z" fill="#C0E8FF"/>
<path d="M348.875 237.8C372.731 237.8 392.091 257.146 392.091 281.03C392.091 304.913 372.751 324.259 348.875 324.259" stroke="#64AAFF" stroke-miterlimit="10"/>
<path d="M357.53 290.404C358.465 289.707 359.201 288.991 359.579 288.334C360.176 286.981 360.753 285.07 361.27 282.98C361.668 283.299 362.146 283.537 362.703 283.517C364.155 283.478 367.876 275.835 365.986 274.064C364.912 273.049 363.797 273.924 363.041 274.86C363.678 271.456 364.076 268.849 364.076 268.849H364.016C364.056 268.411 364.076 267.993 364.076 267.555C364.076 258.619 356.833 251.394 347.92 251.394C339.006 251.394 331.763 258.639 331.763 267.555C331.763 267.993 331.783 268.431 331.823 268.849H331.763C331.763 268.849 332.161 271.456 332.798 274.86C332.042 273.924 330.927 273.049 329.853 274.064C327.963 275.835 331.664 283.478 333.136 283.517C333.673 283.517 334.171 283.299 334.569 282.98C335.106 285.07 335.683 286.981 336.26 288.334C336.717 289.13 337.732 290.006 338.966 290.862C338.568 293.728 337.692 296.972 335.743 298.743C333.056 301.211 326.888 303.221 321.974 305.371C328.619 312.735 338.23 317.353 348.934 317.353C359.639 317.353 368.891 312.894 375.517 305.769C370.483 303.46 363.698 301.351 360.853 298.743C358.803 296.852 357.928 293.369 357.57 290.384L357.53 290.404Z" fill="#023A90"/>
<path d="M15.3406 133.987H4.0391C1.80837 133.987 0 135.796 0 138.027V149.332C0 151.563 1.80837 153.372 4.0391 153.372H15.3406C17.5713 153.372 19.3797 151.563 19.3797 149.332V138.027C19.3797 135.796 17.5713 133.987 15.3406 133.987Z" fill="#C0E8FF"/>
<path d="M499.893 206.692H488.591C486.361 206.692 484.552 208.501 484.552 210.732V222.037C484.552 224.269 486.361 226.078 488.591 226.078H499.893C502.124 226.078 503.932 224.269 503.932 222.037V210.732C503.932 208.501 502.124 206.692 499.893 206.692Z" fill="#C0E8FF"/>
<path d="M163.136 407.035H151.834C149.604 407.035 147.795 408.844 147.795 411.076V422.38C147.795 424.612 149.604 426.421 151.834 426.421H163.136C165.366 426.421 167.175 424.612 167.175 422.38V411.076C167.175 408.844 165.366 407.035 163.136 407.035Z" fill="#C0E8FF"/>
<path d="M140.015 432.491H132.952C131.556 432.491 130.425 433.623 130.425 435.019V442.084C130.425 443.48 131.556 444.612 132.952 444.612H140.015C141.411 444.612 142.542 443.48 142.542 442.084V435.019C142.542 433.623 141.411 432.491 140.015 432.491Z" fill="#C0E8FF"/>
<path d="M40.7889 161.055H29.4874C27.2567 161.055 25.4483 162.864 25.4483 165.095V176.4C25.4483 178.631 27.2567 180.44 29.4874 180.44H40.7889C43.0196 180.44 44.828 178.631 44.828 176.4V165.095C44.828 162.864 43.0196 161.055 40.7889 161.055Z" fill="#C0E8FF"/>
<path d="M445.395 423.594H499.296C506.32 423.594 512.01 417.902 512.01 410.876V366.035C512.01 359.009 506.32 353.317 499.296 353.317H492.631" stroke="#64AAFF" stroke-width="2" stroke-linecap="round" stroke-linejoin="round"/>
<path d="M362.604 72.606H313.338V82.2987H362.604V72.606Z" stroke="#64AAFF" stroke-miterlimit="10"/>
<path d="M327.465 91.1754H313.338V100.868H327.465V91.1754Z" stroke="#64AAFF" stroke-miterlimit="10"/>
</g>
<defs>
<linearGradient id="paint0_linear_13_437" x1="65.9785" y1="-45.0404" x2="65.9785" y2="64.4259" gradientUnits="userSpaceOnUse">
<stop stop-color="#D9E3F6"/>
<stop offset="0.12" stop-color="#EAEFFA"/>
<stop offset="0.26" stop-color="#F6F8FD"/>
<stop offset="0.46" stop-color="#FDFDFE"/>
<stop offset="1" stop-color="white"/>
</linearGradient>
<linearGradient id="paint1_linear_13_437" x1="134.186" y1="0" x2="134.186" y2="0" gradientUnits="userSpaceOnUse">
<stop stop-color="#D9E3F6"/>
<stop offset="0.12" stop-color="#EAEFFA"/>
<stop offset="0.26" stop-color="#F6F8FD"/>
<stop offset="0.46" stop-color="#FDFDFE"/>
<stop offset="1" stop-color="white"/>
</linearGradient>
<linearGradient id="paint2_linear_13_437" x1="202.393" y1="0" x2="202.393" y2="0" gradientUnits="userSpaceOnUse">
<stop stop-color="#D9E3F6"/>
<stop offset="0.12" stop-color="#EAEFFA"/>
<stop offset="0.26" stop-color="#F6F8FD"/>
<stop offset="0.46" stop-color="#FDFDFE"/>
<stop offset="1" stop-color="white"/>
</linearGradient>
<linearGradient id="paint3_linear_13_437" x1="270.58" y1="0" x2="270.58" y2="0" gradientUnits="userSpaceOnUse">
<stop stop-color="#D9E3F6"/>
<stop offset="0.12" stop-color="#EAEFFA"/>
<stop offset="0.26" stop-color="#F6F8FD"/>
<stop offset="0.46" stop-color="#FDFDFE"/>
<stop offset="1" stop-color="white"/>
</linearGradient>
<linearGradient id="paint4_linear_13_437" x1="74.5144" y1="364.542" x2="105.213" y2="234.799" gradientUnits="userSpaceOnUse">
<stop stop-color="#D9E3F6"/>
<stop offset="0.12" stop-color="#EAEFFA"/>
<stop offset="0.26" stop-color="#F6F8FD"/>
<stop offset="0.46" stop-color="#FDFDFE"/>
<stop offset="1" stop-color="white"/>
</linearGradient>
<clipPath id="clip0_13_437">
<rect width="514" height="525" fill="white"/>
</clipPath>
</defs>
</svg>
